<?xml version="1.0" encoding="utf-8"?>
<!-- Generator: Adobe Illustrator 22.1.0, SVG Export Plug-In . SVG Version: 6.00 Build 0)  -->
<svg version="1.1" id="Capa_1" xmlns="http://www.w3.org/2000/svg" xmlns:xlink="http://www.w3.org/1999/xlink" x="0px" y="0px"
	 viewBox="0 0 512 512" style="enable-background:new 0 0 512 512;" xml:space="preserve">
<style type="text/css">
	.st0{fill:#ff0000;}
</style>
<g>
	<g>
		<path class="st0" d="M486.4,221.9H315.7c-14.1,0-25.6,11.5-25.6,25.6v238.9c0,14.1,11.5,25.6,25.6,25.6h170.7
			c14.1,0,25.6-11.5,25.6-25.6V247.5C512,233.3,500.5,221.9,486.4,221.9z M392.5,494.9h-76.8c-4.7,0-8.5-3.8-8.5-8.5v-59.7h85.3
			V494.9z M392.5,409.6h-85.3v-68.3h85.3V409.6z M494.9,486.4c0,4.7-3.8,8.5-8.5,8.5h-76.8v-68.3h85.3V486.4z M494.9,409.6h-85.3
			v-68.3h85.3V409.6z M494.9,324.3H307.2v-76.8c0-4.7,3.8-8.5,8.5-8.5h170.7c4.7,0,8.5,3.8,8.5,8.5V324.3z"/>
	</g>
</g>
<g>
	<g>
		<path class="st0" d="M469.3,256H332.8c-4.7,0-8.5,3.8-8.5,8.5v34.1c0,4.7,3.8,8.5,8.5,8.5h136.5c4.7,0,8.5-3.8,8.5-8.5v-34.1
			C477.9,259.8,474,256,469.3,256z M460.8,290.1H341.3v-17.1h119.5V290.1z"/>
	</g>
</g>
<g>
	<g>
		<polygon class="st0" points="358.4,366.9 358.4,349.9 341.3,349.9 341.3,366.9 324.3,366.9 324.3,384 341.3,384 341.3,401.1 
			358.4,401.1 358.4,384 375.5,384 375.5,366.9 		"/>
	</g>
</g>
<g>
	<g>
		<rect x="426.7" y="366.9" class="st0" width="51.2" height="17.1"/>
	</g>
</g>
<g>
	<g>
		<polygon class="st0" points="374,449.8 361.9,437.7 349.9,449.8 337.8,437.7 325.7,449.8 337.8,461.8 325.7,473.9 337.8,486 
			349.9,473.9 361.9,486 374,473.9 361.9,461.8 		"/>
	</g>
</g>
<g>
	<g>
		<rect x="426.7" y="452.3" class="st0" width="51.2" height="17.1"/>
	</g>
</g>
<g>
	<g>
		<rect x="443.7" y="473.6" class="st0" width="17.1" height="8.5"/>
	</g>
</g>
<g>
	<g>
		<rect x="443.7" y="439.5" class="st0" width="17.1" height="8.5"/>
	</g>
</g>
<g>
	<g>
		<path class="st0" d="M341.3,0H93.9v0.1c-2.3,0-4.4,0.8-6,2.4L2.5,87.8c-1.6,1.6-2.5,3.8-2.4,6H0v401.1c0,9.4,7.6,17.1,17.1,17.1
			h256v-17.1h-51.2v-25.6h17.1c4.7,0,8.5-3.8,8.5-8.5v-42.7c0-4.7-3.8-8.5-8.5-8.5h-17.1V384h17.1c4.7,0,8.5-3.8,8.5-8.5v-42.7
			c0-4.7-3.8-8.5-8.5-8.5h-0.2c21.6-16.1,34.3-41.4,34.4-68.3c0.1-47.1-38-85.4-85.2-85.5s-85.4,38-85.5,85.2
			c-0.1,27,12.7,52.5,34.4,68.6H68.3c-4.7,0-8.5,3.8-8.5,8.5v34.1H42.7c-4.7,0-8.5,3.8-8.5,8.5v42.7c0,4.7,3.8,8.5,8.5,8.5h17.1
			v25.6H42.7c-4.7,0-8.5,3.8-8.5,8.5v34.1H17.1V102.4h68.3c9.4,0,17.1-7.6,17.1-17.1V17.1h238.9v187.7h17.1V17.1
			C358.4,7.6,350.8,0,341.3,0z M230.4,426.7v25.6H76.8v-25.6H230.4z M119.5,256c0-37.7,30.6-68.3,68.3-68.3S256,218.3,256,256
			s-30.6,68.3-68.3,68.3C150,324.2,119.5,293.7,119.5,256z M76.8,341.3h153.6v25.6H76.8V341.3z M51.2,409.6V384h153.6v25.6H68.3
			H51.2z M51.2,469.3h153.6v25.6H51.2V469.3z M85.3,85.3H29.1l56.2-56.2V85.3z"/>
	</g>
</g>
<g>
	<g>
		<path class="st0" d="M187.7,230.4h25.6v-17.1h-17.1v-8.5h-17.1v10.1c-13.3,4.7-20.3,19.3-15.6,32.6c3.6,10.2,13.3,17.1,24.1,17.1
			c4.7,0,8.5,3.8,8.5,8.5c0,4.7-3.8,8.5-8.5,8.5h-25.6v17.1h17.1v8.5h17.1v-10.1c13.3-4.7,20.3-19.3,15.6-32.6
			c-3.6-10.2-13.3-17.1-24.1-17.1c-4.7,0-8.5-3.8-8.5-8.5C179.2,234.2,183,230.4,187.7,230.4z"/>
	</g>
</g>
<g>
	<g>
		<path class="st0" d="M477.9,42.7h-17.1c0-4.7-3.8-8.5-8.5-8.5h-8.5V8.5c0-4.7-3.8-8.5-8.5-8.5h-34.1c-4.7,0-8.5,3.8-8.5,8.5v25.6
			H384c-4.7,0-8.5,3.8-8.5,8.5v162.1h17.1V51.2h51.2v153.6h17.1V59.7h17.1v110.9h17.1V59.7C494.9,50.3,487.3,42.7,477.9,42.7z
			 M426.7,34.1h-17.1V17.1h17.1V34.1z"/>
	</g>
</g>
<g>
	<g>
		<rect x="128" y="68.3" class="st0" width="145.1" height="17.1"/>
	</g>
</g>
<g>
	<g>
		<rect x="34.1" y="119.5" class="st0" width="290.1" height="17.1"/>
	</g>
</g>
<g>
	<g>
		<rect x="34.1" y="153.6" class="st0" width="102.4" height="17.1"/>
	</g>
</g>
<g>
	<g>
		<rect x="247.5" y="153.6" class="st0" width="76.8" height="17.1"/>
	</g>
</g>
</svg>
