<?xml version="1.0" encoding="utf-8"?>
<!-- Generator: Adobe Illustrator 22.1.0, SVG Export Plug-In . SVG Version: 6.00 Build 0)  -->
<svg version="1.1" id="Layer_1" xmlns="http://www.w3.org/2000/svg" xmlns:xlink="http://www.w3.org/1999/xlink" x="0px" y="0px"
	 viewBox="0 0 512 512" style="enable-background:new 0 0 512 512;" xml:space="preserve">
<style type="text/css">
	.st0{fill:#ff0000;}
</style>
<path class="st0" d="M41.3,49.5H289v57.8c0,4.6,3.7,8.3,8.3,8.3h57.8v66.1h16.5v-74.3c0-2.3-0.9-4.4-2.4-5.8l-66-66
	c-1.5-1.5-3.6-2.4-5.9-2.4h-223V16.5h313.8v181.7h16.5V8.3c0-4.6-3.7-8.3-8.3-8.3H66.1c-4.6,0-8.3,3.7-8.3,8.3V33H33
	c-4.6,0-8.3,3.7-8.3,8.3v462.5c0,4.6,3.7,8.3,8.3,8.3h280.8v-16.5H41.3V49.5z M305.5,61.2l37.9,37.9h-37.9V61.2z"/>
<path class="st0" d="M479,247.7h-12.4c-36.9,0-71.6-16.2-95.2-44.6l-1.7-2c-3.1-3.8-9.6-3.8-12.7,0l-1.7,2
	c-23.6,28.3-58.3,44.6-95.2,44.6h-12.4c-4.6,0-8.3,3.7-8.3,8.3v133.7c0,32.5,17.5,62.7,45.8,78.9l74,42.3c1.3,0.7,2.7,1.1,4.1,1.1
	s2.8-0.4,4.1-1.1l74-42.3c28.2-16.1,45.8-46.4,45.8-78.9V256C487.2,251.4,483.5,247.7,479,247.7z M470.7,389.7
	c0,26.6-14.3,51.3-37.5,64.5l-69.9,40l-69.9-40c-23.1-13.2-37.5-37.9-37.5-64.5V264.3h4.2c39.4,0,76.6-16.4,103.2-45.2
	c26.5,28.8,63.8,45.2,103.2,45.2h4.2V389.7z"/>
<path class="st0" d="M363.4,272.5c-50.1,0-90.8,40.8-90.8,90.8s40.8,90.8,90.8,90.8s90.8-40.8,90.8-90.8S413.4,272.5,363.4,272.5z
	 M363.4,437.7c-41,0-74.3-33.3-74.3-74.3s33.3-74.3,74.3-74.3s74.3,33.3,74.3,74.3S404.3,437.7,363.4,437.7z"/>
<path class="st0" d="M359.4,389l-15-15l-11.7,11.7l24.8,24.8c1.6,1.6,3.7,2.4,5.8,2.4c0.7,0,1.3-0.1,2-0.2c2.8-0.7,5.1-2.9,5.9-5.6
	l24.8-82.6l-15.8-4.7L359.4,389z"/>
<path class="st0" d="M57.8,132.1h214.7v16.5H57.8V132.1z"/>
<path class="st0" d="M57.8,165.2h214.7v16.5H57.8V165.2z"/>
<path class="st0" d="M57.8,198.2h214.7v16.5H57.8V198.2z"/>
<path class="st0" d="M57.8,231.2H223v16.5H57.8V231.2z"/>
<path class="st0" d="M57.8,264.3H223v16.5H57.8V264.3z"/>
<path class="st0" d="M57.8,297.3H223v16.5H57.8V297.3z"/>
<path class="st0" d="M57.8,396.4H223v16.5H57.8V396.4z"/>
<path class="st0" d="M57.8,429.4H223v16.5H57.8V429.4z"/>
<path class="st0" d="M57.8,462.5H223V479H57.8V462.5z"/>
<path class="st0" d="M66.1,66.1h16.5v16.5H66.1V66.1z"/>
<path class="st0" d="M99.1,66.1h16.5v16.5H99.1V66.1z"/>
<path class="st0" d="M132.1,66.1h16.5v16.5h-16.5V66.1z"/>
<path class="st0" d="M165.2,66.1h107.4v16.5H165.2V66.1z"/>
</svg>
