<?xml version="1.0" encoding="utf-8"?>
<!-- Generator: Adobe Illustrator 22.1.0, SVG Export Plug-In . SVG Version: 6.00 Build 0)  -->
<svg version="1.1" id="Capa_1" xmlns="http://www.w3.org/2000/svg" xmlns:xlink="http://www.w3.org/1999/xlink" x="0px" y="0px"
	 viewBox="0 0 512 512" style="enable-background:new 0 0 512 512;" xml:space="preserve">
<style type="text/css">
	.st0{fill:#ff0000;}
</style>
<g>
	<circle class="st0" cx="256" cy="221.9" r="8.5"/>
	<circle class="st0" cx="281.6" cy="204.8" r="8.5"/>
	<circle class="st0" cx="230.4" cy="204.8" r="8.5"/>
	<circle class="st0" cx="204.8" cy="187.7" r="8.5"/>
	<circle class="st0" cx="307.2" cy="187.7" r="8.5"/>
	<circle class="st0" cx="332.8" cy="170.7" r="8.5"/>
	<circle class="st0" cx="179.2" cy="170.7" r="8.5"/>
	<circle class="st0" cx="256" cy="187.7" r="8.5"/>
	<circle class="st0" cx="256" cy="290.1" r="8.5"/>
	<circle class="st0" cx="256" cy="315.7" r="8.5"/>
	<circle class="st0" cx="256" cy="341.3" r="8.5"/>
	<circle class="st0" cx="256" cy="366.9" r="8.5"/>
	<circle class="st0" cx="256" cy="392.5" r="8.5"/>
	<circle class="st0" cx="256" cy="418.1" r="8.5"/>
	<path class="st0" d="M460.8,494.9h-25.6v-34.1h-42.7v-87.2c0-23-11.5-44.4-30.6-57.2L271.4,256l90.5-60.3
		c19.2-12.8,30.6-34.2,30.6-57.2V51.2h42.7V17.1h25.6c4.7,0,8.5-3.8,8.5-8.5S465.5,0,460.8,0h-25.6h-8.5H85.3h-8.5H51.2
		c-4.7,0-8.5,3.8-8.5,8.5s3.8,8.5,8.5,8.5h25.6v34.1h42.7v87.2c0,23,11.5,44.4,30.6,57.2l90.5,60.3l-90.5,60.3
		c-19.2,12.8-30.6,34.2-30.6,57.2v87.2H76.8v34.1H51.2c-4.7,0-8.5,3.8-8.5,8.5c0,4.7,3.8,8.5,8.5,8.5h25.6h8.5h341.3h8.5h25.6
		c4.7,0,8.5-3.8,8.5-8.5C469.3,498.7,465.5,494.9,460.8,494.9z M93.9,34.1V17.1h324.3v17.1h-25.6H119.5H93.9z M159.6,181.5
		c-14.4-9.6-23-25.7-23-43V51.2h238.9v87.2c0,17.3-8.6,33.4-23,43L256,245.7L159.6,181.5z M136.5,373.6c0-17.3,8.6-33.4,23-43
		l96.4-64.3l96.4,64.3c14.4,9.6,23,25.7,23,43v87.2H136.5V373.6z M93.9,477.9h25.6h273.1h25.6v17.1H93.9V477.9z"/>
</g>
</svg>
