<?xml version="1.0" encoding="utf-8"?>
<!-- Generator: Adobe Illustrator 22.1.0, SVG Export Plug-In . SVG Version: 6.00 Build 0)  -->
<svg version="1.1" id="Layer_1" xmlns="http://www.w3.org/2000/svg" xmlns:xlink="http://www.w3.org/1999/xlink" x="0px" y="0px"
	 viewBox="0 0 121.3 70" style="enable-background:new 0 0 121.3 70;" xml:space="preserve">
<style type="text/css">
	.st0{fill:#EC2227;}
	.st1{fill:#FFFFFF;}
</style>
<g>
	<polygon class="st0" points="73.5,35.1 79.2,44.3 70,44.3 64.2,35 70.1,25.5 79.4,25.5 	"/>
	<g>
		<polygon class="st0" points="78.4,0 78.4,25.5 48.3,25.5 79.3,70 24.5,70 24.5,25.5 0,25.5 0,0 		"/>
		<path class="st1" d="M99.5,0l-5,25.5H70.1L64.3,35l5.7,9.3h24.5l5,25.7h-32c-19.3,0-35-15.7-35-35c0-19.2,15.5-34.8,34.6-35
			c0.1,0,0.3,0,0.4,0H99.5z"/>
		<polygon class="st0" points="99.8,35 121.3,70 95,70 94.4,68.9 79.1,44.2 73.4,35 79.3,25.5 94.4,1.1 95,0 121.3,0 		"/>
	</g>
</g>
</svg>
