<?xml version="1.0" encoding="utf-8"?>
<!-- Generator: Adobe Illustrator 21.1.0, SVG Export Plug-In . SVG Version: 6.00 Build 0)  -->
<svg version="1.1" id="Слой_1" xmlns="http://www.w3.org/2000/svg" xmlns:xlink="http://www.w3.org/1999/xlink" x="0px" y="0px"
	 viewBox="0 0 911.7 372.4" style="enable-background:new 0 0 911.7 372.4;" xml:space="preserve">
<style type="text/css">
	.st0{fill:#F14500;}
	.st1{fill:#373839;}
	.st2{fill:#4C5159;}
	.st3{fill:#4C5058;}
	.st4{fill:#FBFBFB;}
	.st5{fill:#3F434A;}
</style>
<title>Logo SA SVG</title>
<path class="st0" d="M184.5,110.5c7.3-11.7,14.5-23.4,21.8-35.1c14.5-23.3,29.1-46.7,43.6-70.1c1.8-2.9,3.6-4.1,7.1-4.1
	c26.2,0.2,52.3,0.2,78.5,0c4.1,0,4.6,1.2,4.1,4.9c-9.6,62.4-19.1,124.8-28.5,187.2c-1.2,7.7-1.2,7.6-8.8,7.6
	c-15.8,0-31.6-0.1-47.4,0.1c-3.6,0-4.4-0.9-3.7-4.4c1.7-8.2,3-16.6,4.7-24.8c0.5-2.6,0.4-3.8-2.8-3.8c-14.6,0.1-29.2,0.1-43.8,0
	c-2.6,0-3.7,1.3-4.9,3.2c-5.4,8.9-10.9,17.7-16.2,26.6c-1.2,2-2.3,3.2-4.9,3.2c-17.6-0.1-35.2-0.1-52.8-0.1c-0.2,0-0.5-0.2-1.2-0.7
	c11.8-7.4,21.1-18.2,26.6-31c-2.1-0.3-2.5,1.1-3.2,1.8c-19,20-41.7,31.7-69.9,31c-16.7-0.4-33.4,0.7-50-0.8c-7.1-0.6-14-2-20.4-5.1
	C4.1,192-0.1,185.4,0,176c0.1-9.6,3.6-18.2,7.6-26.7c2.4-5.2,3.8-11.9,7.9-14.9s11-0.7,16.7-0.8c12-0.1,24,0,36.6,0
	c-1.5,3.7-3,6.8-4.1,10c-1.9,5.6-0.5,8.6,5.2,9.5c11,1.7,22.2,1.7,33.2-0.2c4-0.6,7.4-3.2,9.1-6.8c2.1-4.1,4.3-8.3,6.1-12.6
	s0.8-6-3.7-7.2c-10.4-2.7-21.1-2.9-31.7-4.5c-7.7-1.1-15.6-1.4-23.2-3.4c-16.1-4.3-23.1-14.2-18.8-30.2
	c7.4-27.9,19.8-53.2,43.2-71.6c11.3-9.1,25.2-14.6,39.7-15.6c20.3-1.4,40.6-1.5,60.9-0.2c4.7,0.3,9.3,1.3,13.6,3
	c14.2,5.3,19.9,16,16.4,30.7c-2.4,10.4-7.9,19.4-12.2,29c-0.8,1.7-2.1,1.5-3.4,1.5c-16.1,0-32.2,0-48.3,0c-2.4,0-3-0.6-1.8-2.9
	c1.4-2.5,2.5-5.1,3.2-7.9c0.7-3-0.1-5.2-3.3-5.6c-10.9-1.4-21.9-1.8-32.7,1c-3.2,0.8-5.2,3.5-6.7,6.3c-1.2,2.3-2.2,4.6-3.3,6.9
	c-2.6,5.6-1.6,7.8,4.4,9.7c6.4,1.9,13,2.1,19.6,3c9.2,1.3,18.5,2.5,27.7,3.7c1.4,0.2,2.7,0.5,4,0.9
	C178.8,84.8,184.8,93.1,184.5,110.5z M272.8,61.3c-12.6,19.6-25.1,39.2-37.8,58.7c-1.7,2.6-0.7,2.9,1.8,2.9c7.7-0.1,15.3-0.2,23,0
	c2.8,0.1,3.6-1,4-3.5c2.6-16.5,5.5-32.9,8.1-49.4C272.4,67.1,273.8,64.3,272.8,61.3l0.1,0L272.8,61.3z"/>
<path class="st1" d="M357.9,56.8c11.6,6.1,23,11.8,34,18.2c6.6,3.8,13.2,5.2,21.9,3.9l-48.1-21.6c1.5-0.9,2.9-0.3,4.4,0.1
	l470.9,130.5c7.1,2,14.2,4,21.3,6c2.6,0.8,6.3,0.7,5.8,4.8s-4.1,3.2-6.8,3.2c-46.8,0.1-93.5,0-140.3,0.2c-6.7,0.1-13.4-1.3-19.6-3.9
	c-26.6-11.2-53.3-22.1-79.9-33.3c-2.8-1.2-5.7-1.7-8.7-1.7c-16.5,0.1-33.1,0-49.6,0c-1.5-0.1-3,0.2-4.4,0.8l71.1,37.1l-0.2,0.9h-7.4
	H406.1c-7.6,0-7.8-0.1-9.9-7.5c-12.6-44.1-25.2-88.1-37.8-132.2C357.7,60.6,357.5,58.6,357.9,56.8z M573.7,146
	c-0.6-1.5-1.7-1.5-2.4-1.8c-21.9-9.1-44-17.7-65.6-27.3c-12.7-5.7-25.5-2.1-38.2-3.3c0.2,0.5,0.5,1,1,1.2
	c19.3,10.1,38.6,20.1,57.9,30.2c1.2,0.7,2.5,1,3.8,1C544.5,146,559,146,573.7,146z M413.7,85.9c16,9.6,31,18.9,50.1,13.8
	c-8.5-3.6-17.4-6.7-25.7-10.8C430.4,85,422.5,86.1,413.7,85.9L413.7,85.9z"/>
<path class="st2" d="M486.5,78.1c3.6-0.9,6.2-0.2,8.9,0.3c76.1,12.8,152.1,25.5,228.2,38.2c58.6,9.8,117.1,19.7,175.7,29.6
	c8.2,1.4,12,5.9,12.2,14.1c0.1,3.6-0.2,7.2,0.1,10.8s-0.7,4.6-4.5,3.6c-15.9-3.9-31.9-7.4-47.9-11.1L491,79.2
	C489.9,79,488.7,78.6,486.5,78.1z"/>
<path class="st2" d="M356.1,90.8c1.3,9.5,2.6,19,3.9,28.4c3.5,25.6,7,51.2,10.5,76.7c0.8,6.1,0.7,6.2-5.3,6.2s-12-0.1-18,0
	c-2.5,0.1-3.7-0.2-3.4-3.4c4-36,7.7-71.9,11.6-107.9L356.1,90.8z"/>
<path class="st3" d="M439.6,230.1c7.1,0,14.1-0.1,21.2,0c14.5,0.4,21.6,9.5,18.6,23.7c-2.1,10.2-7.7,17.9-16.9,22.6
	c-3,1.6-3.1,3.1-2.2,5.9c2.7,8,5,16.1,7.6,24c0.9,2.6,0.3,3.4-2.5,3.3c-5.2-0.2-10.5-0.2-15.8,0c-2.2,0.1-3.1-0.8-3.7-2.9
	c-2.3-7.6-4.8-15.2-7.1-22.8c-0.7-2.5-1.6-3.8-4.6-3.6c-4.6,0.4-10.3-1.3-13.7,0.8s-2.9,8.4-4.4,12.8c-0.5,1.6-0.8,3.2-1.4,4.8
	c-1.3,3.6-0.6,9.5-3.8,10.4c-5.4,1.5-11.6,0.7-17.5,0.4c-2.6-0.2-0.7-2.5-0.5-3.5c4-15.1,8.2-30.1,12.4-45.2
	c2.5-9.1,5.1-18.2,7.4-27.4c0.7-2.7,1.8-3.6,4.6-3.5C424.8,230.2,432.2,230.1,439.6,230.1L439.6,230.1z M443.1,249.2L443.1,249.2
	c-3.8,0-7.5,0-11.3,0c-1.4,0-3.2-0.7-3.7,1.5c-0.8,3.3-1.6,6.7-2.4,10c0.6,0.3,1.3,0.4,2,0.5c7.8,0,15.6,0,23.4-0.1
	c4.4-0.1,6.8-2.8,7.8-6.8c0.8-3.1-0.3-5-3.7-5C451.2,249.2,447.1,249.2,443.1,249.2L443.1,249.2z"/>
<path class="st3" d="M270.4,311.6c-12.3-0.2-23.9-2.4-33.6-10.7c-4.9-4.2-4.9-4.3-0.4-8.7c3.2-3.2,6.5-6.3,9.5-9.6
	c1.9-2.1,2.9-2,4.9,0c9.1,9.3,20.4,11.5,32.8,9.1c3-0.5,5.8-1.9,8-4c1.7-1.6,3.2-3.4,2.7-5.9c-0.5-2.6-3-3.4-5.2-3.7
	c-5.6-0.8-11.3-1.3-17-1.8c-5-0.4-9.9-1-14.5-3c-8.4-3.5-11.5-10.1-9.2-19c2.1-8.1,7-14.2,13.9-18.8c15.7-10.5,43.2-9,58,2.8
	c3.4,2.7,4.1,4.8,0.4,7.5c-0.3,0.3-0.7,0.6-0.9,1c-3,3.3-5.5,8-9.3,9.7c-4.3,2-7.2-3.8-11.3-5.4c-7.2-2.9-14.9-3.7-22.5-2.5
	c-1.6,0.3-3.2,0.9-4.6,1.7c-1.6,0.8-3.4,2-2.9,4.1c0.5,1.9,2.5,2,4.1,2.1c7.3,0.9,14.6,1.6,22,2.4c3.3,0.4,6.5,1.3,9.5,2.7
	c8.7,4,12.6,11.9,10.1,21.1c-4.4,16.2-16.3,24.2-31.8,27.8C278.9,311.3,274.7,311.7,270.4,311.6z"/>
<path class="st3" d="M216.9,271.7c3.5-12.6,7-25.1,10.2-37.6c0.8-3.3,2.3-4.3,5.5-4.1c4.2,0.3,8.4,0.2,12.6,0
	c2.4-0.1,2.8,0.7,2.2,2.9c-6.9,24.8-13.7,49.5-20.4,74.3c-0.6,2-1.6,2.3-3.5,2.6c-6.6,0.9-10.8-1.1-14.2-7.5
	c-6.3-11.8-13.8-22.9-21.3-35.2c-1.9,6.8-3.6,12.8-5.2,18.8c-1.9,6.8-3.8,13.6-5.5,20.4c-0.6,2.4-1.5,3.6-4.2,3.4
	c-4.6-0.2-9.3-0.1-14,0c-2.1,0-2.6-0.6-2-2.7c6.9-24.9,13.8-49.8,20.6-74.7c0.4-1.5,1-2.4,2.8-2.3c2.9,0.1,5.7,0.1,8.6,0
	c2.2-0.1,2.7,1.6,3.5,3c7.4,12,14.7,24.1,22.1,36.2C215,270,215.2,271.2,216.9,271.7z"/>
<path class="st3" d="M877.4,272.4c3.5-12.7,7.1-24.6,10-36.7c1.1-4.5,2.8-6.3,7.5-5.7c3.6,0.3,7.2,0.3,10.8,0.1
	c2.4-0.1,3.2,0.5,2.5,3.1c-6.9,24.6-13.6,49.2-20.3,73.9c-0.6,2.2-1.6,2.6-3.7,2.9c-6.7,0.9-10.8-1.2-14.2-7.6
	c-6.3-11.7-13.8-22.8-21.3-35.1c-2.8,10.1-5.3,19.2-7.9,28.4c-1,3.8-2.1,7.5-3,11.3c-0.5,2-1.4,3-3.7,2.9c-4.5-0.2-9-0.1-13.5,0
	c-2.5,0.1-3.5-0.3-2.7-3.2c6.8-24.5,13.5-49,20.1-73.5c0.7-2.6,2.1-2.8,4.4-3.2c6.5-0.9,10.3,1.5,13.5,7.3
	c5.8,10.7,12.5,20.9,18.9,31.3C875.5,269.6,876.2,270.7,877.4,272.4z"/>
<path class="st3" d="M110.6,311.6c-23-0.1-35.8-16.8-30.4-39.8c5.4-23.1,24.7-40.4,48.3-43.1c23.7-2.8,39.6,14,35.5,37.5
	C159.5,291.4,135.7,311.7,110.6,311.6z M128.6,247.9c-13.7-0.1-26.1,11.1-28.6,25.8c-2,12,5.7,20,17.8,18.5
	c13.7-1.7,25.4-14.2,26.1-28C144.4,254.1,138.6,248,128.6,247.9L128.6,247.9z"/>
<path class="st3" d="M772.8,311.6c-21.8,0-34.9-15.6-31.2-37.1c4.2-24.2,25.4-43.7,49.8-45.8c23.1-2,38.1,13.9,34.7,36.9
	C822.4,290.5,798,311.6,772.8,311.6z M805.8,263.2c0.1-9.3-5.2-14.9-14.5-15.4c-13.9-0.6-27.1,11.1-29.3,26.1
	c-1.7,11.9,5.7,19.6,17.7,18.2C793.8,290.6,805.6,277.5,805.8,263.2L805.8,263.2z"/>
<path class="st3" d="M501.7,230.4c10.3,0,10.3,0,7.6,9.9c-3.9,14.4-7.9,28.7-11.7,43c-1.7,6.3,0.2,8.7,6.6,9.2
	c0.9,0.1,1.8,0.1,2.7,0.1c14.7,0.2,18-2.2,21.9-16.5c3.8-13.9,7.8-27.8,11.4-41.7c0.9-3.3,2.3-4.3,5.6-4.1c4.2,0.3,8.4,0.1,12.6,0
	c2.4-0.1,2.7,0.6,2.1,2.9c-5,17.8-9.7,35.7-14.9,53.4c-3.8,13-12.9,20.7-25.9,23.7c-8.4,1.9-17.1,2.3-25.5,0.9
	c-13.9-2.1-20.4-10.9-17.2-24.6c3.4-14.3,7.6-28.4,11.4-42.6c0.9-3.2,2-6.3,2.5-9.6s2.3-4.5,5.5-4.1
	C498.1,230.5,499.9,230.5,501.7,230.4z"/>
<path class="st3" d="M31.4,311.6c-3.5,0.1-7.1-0.3-10.5-1.2C6,306.7-1.8,293.9,0.3,276.6c3.3-27.7,28.6-49.2,56.4-48
	c12.6,0.6,22.1,5.9,27.7,17.6c1,2.1,1,3.4-1.3,4.6c-4.9,2.6-9.6,5.6-14.4,8.4c-1.4,0.8-2.3,1.6-3.4-0.6c-5.3-10.4-12-13-23.2-9.8
	c-12.1,3.5-21.8,16.7-21.5,29.3c0.2,8,4.5,13,12.5,13.9c11.5,1.3,20.1-4.2,26.8-12.8c2.5-3.2,3.8-3.1,6.2-0.3c1.6,2,3.5,3.7,5.6,5.2
	c4.1,2.8,3.3,5,0.3,8.4C60.5,305.1,47.2,311.6,31.4,311.6z"/>
<path class="st3" d="M586.2,311.6c-13.5-0.1-24.5-3.7-30.2-16.4c-3.3-7.3-3-14.9-1.4-22.6c6.2-28.9,33.3-48,61.5-43.3
	c10.3,1.7,17.4,7.6,21.9,16.9c1,2.2,0.9,3.4-1.4,4.7c-4.9,2.7-9.6,5.6-14.4,8.4c-1.4,0.8-2.3,1.5-3.4-0.6
	c-5.3-10.5-13.1-13.4-24.5-9.4s-20.2,16.5-20.1,28.5c0.1,8.7,4.3,13.6,12.9,14.4c11.3,1.1,19.7-4.4,26.3-12.8
	c2.5-3.2,3.9-3.1,6.2-0.3c1.7,2.1,3.7,4,5.9,5.6c3.8,2.6,3,4.7,0.2,7.7C614.7,303.9,602.1,311.8,586.2,311.6z"/>
<path class="st3" d="M408.2,230.6c-1.4,5.2-3,10.3-4.2,15.6c-0.6,2.5-1.7,3-4,3c-7.2-0.1-14.4,0.2-21.6-0.1c-3.3-0.1-4.4,1.1-5.1,4
	c-4.7,17.5-9.7,35-14.3,52.6c-0.9,3.2-2.2,4.3-5.5,4.1c-3.9-0.3-7.8-0.3-11.7,0c-3.2,0.2-3.7-0.7-2.9-3.8
	c4.9-17.5,9.6-35.1,14.6-52.5c1.1-3.8,0.2-4.5-3.4-4.4c-6.6,0.2-13.2-0.1-19.8,0.1c-3.3,0.1-4.7-0.3-3.4-4.1
	c1.7-4.8,1.5-11.4,4.7-14.2s9.8-0.8,14.9-0.8c18.9-0.1,37.9,0,56.8,0C404.8,230.1,406.5,229.7,408.2,230.6z"/>
<path class="st3" d="M726,230.1c-1.7,6.1-3.2,11.7-4.7,17.3c-0.5,2.1-2.1,1.8-3.6,1.8c-7.2,0-14.4,0.2-21.7-0.1
	c-3.2-0.1-4.4,0.9-5.2,3.9c-4.7,17.6-9.6,35-14.3,52.6c-0.8,3.1-2.1,4.5-5.4,4.2c-3.7-0.3-7.5-0.3-11.3,0c-4.1,0.4-4.2-1.2-3.2-4.5
	c4.9-17,9.4-34.2,14.3-51.2c1.1-3.8,1-5.2-3.6-5c-6.6,0.4-13.2,0-19.8,0.1c-3.1,0.1-4.6-0.4-3.2-3.9c0.8-2.4,1.6-4.9,2.1-7.4
	c2.2-7.9,2.2-7.9,10.6-7.9L726,230.1L726,230.1z"/>
<path class="st3" d="M718.6,310c-10.4,0-10.4,0-7.7-10c6-22,12.2-44,18.1-66c0.8-3,1.8-4.3,5.1-4c4.3,0.2,8.7,0.3,13.1,0.1
	c2.3-0.1,2.9,0.7,2.2,2.9c-6.9,24.9-13.7,49.8-20.5,74.7c-0.6,2.1-1.7,2.5-3.5,2.5C723.1,310,720.8,310,718.6,310z"/>
<path class="st3" d="M318.6,349.9c8.8,0,8.8,0,6.4,8.5c-3.1,11-19.6,17.7-29.6,11.9c-3.6-2-6-5.7-6.2-9.9
	c-1.5-15,13.4-29.3,28.3-27.2c2.5,0.3,4.9,1.3,7,2.8c5.5,4.2,5.2,7.6-0.9,10.5c-1.4,0.7-1.8,0.6-2.6-0.9c-2.6-4.8-5.9-6.2-11.1-5.1
	c-6.9,1.5-12.7,8.5-12.9,15.5c-0.1,5.1,2.9,8.5,8.1,8.9c3,0.3,6.1-0.5,8.5-2.3c1.6-1.2,4.3-2.2,3.5-4.6c-0.7-1.9-3.2-0.5-4.8-0.9
	c-1.2-0.3-3.8,1-3.3-1.4c0.4-2.1-0.4-5.6,3.4-5.8C314.4,349.7,316.5,349.9,318.6,349.9z"/>
<path class="st3" d="M383,371.4c-3.1,0.9-4.3-0.7-4.9-3.5c-0.4-2.2-1.6-4.3-1.9-6.5c-0.6-4.1-2.7-5-6.7-5.1
	c-4.5-0.1-6.6,1.2-7.2,5.6c-0.4,2.1-0.9,4.1-1.6,6.1c-0.8,2.8-3.7,4.5-6.5,3.7c-0.2-0.1-0.5-0.1-0.7-0.2c-1.2-0.5-1-1.2-0.7-2.1
	c3.1-11.1,6.2-22.3,9.2-33.4c0.5-2,1.7-2.1,3.3-2.1c6.3,0,12.6-0.1,18.9,0c8.5,0.2,11.8,5.5,8.2,13.4c-1.3,3.1-3.6,5.6-6.6,7.1
	c-2.6,1.2-2.7,2.6-1.8,4.9c0.9,2.5,1.4,5.2,2.4,7.7C388,370.6,387.3,372.4,383,371.4z M374,349.1v0.2c2.7-0.1,5.4-0.3,8.1-0.6
	c2.6-0.5,3.7-2.6,3.6-5c-0.1-2.7-2.5-2.6-4.4-2.6c-3,0-6,0-9,0c-4,0-6.1,1.9-5.8,6.4c0.3,3.7,3.5,0.9,5.3,1.7
	C372.5,349.3,373.3,349.3,374,349.1z"/>
<path class="st3" d="M432.6,372.3c-10.4-0.1-16-6.8-14.5-17.1c2-13.2,14.6-23.3,27.6-22.1c8.1,0.7,13.1,6.5,12.8,14.6
	C457.9,361,445.9,372.4,432.6,372.3z M435,365c8.1-0.1,15.7-8.1,15.5-16.3c-0.1-5-3.4-8.3-8.6-8.4c-7.6-0.2-14.6,6-16,14.3
	C424.9,360.8,428.8,365.2,435,365L435,365z"/>
<path class="st3" d="M568.1,333.9c3.6,0,7.2-0.3,10.8,0.1c5.8,0.5,8.4,4.4,7.2,10.1c-1.6,7-7.7,12-14.9,12.3
	c-3.9,0.2-7.8,0.2-11.7,0c-2.5-0.1-3.5,0.8-4,3.1c-0.7,3.2-1.8,6.4-2.5,9.6c-0.4,1.5-0.8,2.3-2.6,2.5c-5.3,0.5-5.7,0.2-4.3-5
	c2.7-9.7,5.4-19.4,8-29.1c0.7-2.6,1.6-3.9,4.5-3.6C561.8,334.1,564.9,333.8,568.1,333.9L568.1,333.9z M566.4,349.1v-0.2
	c2.5,0.1,5.1,0.1,7.6-0.1c2.7-0.3,4.2-2.3,4.2-5c0-3.1-2.5-2.8-4.6-2.9c-3-0.1-6,0.3-9-0.1c-5.2-0.8-5.3,3.3-5.5,6.2
	c-0.3,4,3.3,1.2,5,2C564.9,349.3,565.7,349.3,566.4,349.1L566.4,349.1z"/>
<path class="st3" d="M496.1,372.3c-1-0.1-2.7-0.1-4.3-0.4c-5.9-1-8.7-4.5-7.4-10.2c2-8.8,4.5-17.5,7-26.1c1-3.6,4.4-1.9,6.5-1.6
	c2.4,0.3,0.6,2.5,0.3,3.6c-1.8,7-3.8,13.9-5.6,20.9c-1.3,4.9-0.2,6.2,4.9,6.5c8.2,0.5,10-0.8,12.2-8.6c1.9-6.6,3.6-13.3,5.5-20
	c0.6-2.2,5.5-3.8,7.4-2.4c1,0.7,0.4,1.6,0.2,2.4c-2.3,8.2-4.4,16.5-7,24.7C513.1,369,506.9,372.5,496.1,372.3z"/>
<path class="st4" d="M272.8,61.2l0.1,0.1L272.8,61.2L272.8,61.2z"/>
<polygon class="st5" points="491.2,77.8 476,75.4 493.7,79.8 "/>
</svg>
