<?xml version="1.0" encoding="utf-8"?>
<!-- Generator: Adobe Illustrator 22.1.0, SVG Export Plug-In . SVG Version: 6.00 Build 0)  -->
<svg version="1.1" id="Layer_1" xmlns="http://www.w3.org/2000/svg" xmlns:xlink="http://www.w3.org/1999/xlink" x="0px" y="0px"
	 viewBox="0 0 68.7 38.7" style="enable-background:new 0 0 68.7 38.7;" xml:space="preserve">
<style type="text/css">
	.st0{fill:#FFFFFF;}
	.st1{fill:#EC2227;}
</style>
<g>
	<polygon class="st0" points="42.3,19.4 45.4,24.5 40.3,24.5 37.2,19.3 40.4,14.1 45.6,14.1 	"/>
	<polygon class="st0" points="45,0 45,14.1 28.4,14.1 45.5,38.7 15.2,38.7 15.2,14.1 1.7,14.1 1.7,0 	"/>
	<path class="st1" d="M53.9,0v14.1H40.4l-3.2,5.2l3.2,5.1h13.5v14.2H39c-10.7,0-19.3-8.7-19.3-19.3S28.2,0.1,38.8,0
		C38.9,0,39,0,39,0H53.9z"/>
	<polygon class="st0" points="56.8,19.3 68.7,38.7 54.2,38.7 53.8,38.1 45.4,24.4 42.2,19.3 45.5,14.1 53.8,0.6 54.2,0 68.7,0 	"/>
</g>
</svg>
